<svg id="Layer_5" enable-background="new 0 0 64 64" height="512" viewBox="0 0 64 64" width="512" xmlns="http://www.w3.org/2000/svg"><g><path d="m63 13.303v-2.303h-2v-6c0-2.206-1.794-4-4-4s-4 1.794-4 4v6h-2v2.303l2 3v20.697h-2v4h-2v-3.414l-3-3-3 3v3.414h-2v-6h-2v-1c0-3.519-2.614-6.432-6-6.92v-4.08h-2v4.08c-3.386.488-6 3.401-6 6.92v1h-2v6h-2v-3.414l-3-3-3 3v3.414h-2v-4h-2v-20.697l2-3v-2.303h-2v-6c0-2.206-1.794-4-4-4s-4 1.794-4 4v6h-2v2.303l2 3v20.697h-2v26h62v-26h-2v-20.697zm-3.535 1.697h-4.93l-1.333-2h7.596zm-4.465-10c0-1.103.897-2 2-2s2 .897 2 2v6h-4zm-10 33.414 1-1 1 1v2.586h-2zm-10 16.586h-2v-3.816c1.161.414 2 1.514 2 2.816zm-4 0h-2v-1c0-1.302.839-2.402 2-2.816zm-2 2h2v4h-2zm4 0h2v4h-2zm-1-8c-2.757 0-5 2.243-5 5v7h-2v-20h14v20h-2v-7c0-2.757-2.243-5-5-5zm-5-15c0-2.757 2.243-5 5-5s5 2.243 5 5v1h-10zm12 3v2h-14v-2zm-22 1.414 1-1 1 1v2.586h-2zm-12.465-23.414-1.333-2h7.596l-1.333 2zm.465-10c0-1.103.897-2 2-2s2 .897 2 2v6h-4zm0 12h4v20h-4zm6 44h-8v-22h8zm2-18h10v18h-10zm28 18v-18h10v18zm20 0h-8v-22h8zm-6-24v-20h4v20z"/><path d="m43 53h2v2h-2z"/><path d="m43 45h2v2h-2z"/><path d="m43 57h2v2h-2z"/><path d="m43 49h2v2h-2z"/><path d="m47 49h2v2h-2z"/><path d="m47 53h2v2h-2z"/><path d="m47 45h2v2h-2z"/><path d="m47 57h2v2h-2z"/><path d="m15 53h2v2h-2z"/><path d="m15 45h2v2h-2z"/><path d="m15 49h2v2h-2z"/><path d="m15 57h2v2h-2z"/><path d="m19 57h2v2h-2z"/><path d="m19 49h2v2h-2z"/><path d="m19 45h2v2h-2z"/><path d="m19 53h2v2h-2z"/><path d="m5 41h4v2h-4z"/><path d="m5 45h4v2h-4z"/><path d="m5 49h4v2h-4z"/><path d="m5 53h4v2h-4z"/><path d="m5 57h4v2h-4z"/><path d="m55 41h4v2h-4z"/><path d="m55 45h4v2h-4z"/><path d="m55 49h4v2h-4z"/><path d="m55 53h4v2h-4z"/><path d="m55 57h4v2h-4z"/></g></svg>