<svg id="Layer_3" enable-background="new 0 0 64 64" height="512" viewBox="0 0 64 64" width="512" xmlns="http://www.w3.org/2000/svg"><g><path d="m40 35h-.826c3.545-2.128 6.069-5.772 6.672-10.035 2.317-.18 4.154-2.102 4.154-4.465 0-2.31-1.756-4.197-4-4.449v-1.051c0-7.72-6.28-14-14-14s-14 6.28-14 14v1.051c-2.244.252-4 2.139-4 4.449 0 2.363 1.837 4.285 4.154 4.465.603 4.263 3.126 7.907 6.672 10.035h-.826c-7.72 0-14 6.28-14 14v6c0 .552.448 1 1 1h1v7h2v-7h4v7h2v-8-9h-2v8h-6v-5c0-6.617 5.383-12 12-12h1.08c.488 3.387 3.401 6 6.92 6s6.432-2.613 6.92-6h1.08c6.617 0 12 5.383 12 12v5h-6v-8h-2v9 8h2v-7h4v7h2v-7h1c.552 0 1-.448 1-1v-6c0-7.72-6.28-14-14-14zm8-14.5c0 1.207-.86 2.217-2 2.449v-4.899c1.14.233 2 1.243 2 2.45zm-16-17.5c6.454 0 11.72 5.126 11.976 11.518l-2.371 1.778c-.643-1.352-2.011-2.296-3.605-2.296-1.858 0-3.411 1.28-3.858 3h-4.284c-.447-1.72-2-3-3.858-3-1.594 0-2.962.944-3.605 2.297l-2.371-1.778c.256-6.393 5.522-11.519 11.976-11.519zm8 15c0 1.103-.897 2-2 2s-2-.897-2-2 .897-2 2-2 2 .897 2 2zm-12 0c0 1.103-.897 2-2 2s-2-.897-2-2 .897-2 2-2 2 .897 2 2zm-12 2.5c0-1.207.86-2.217 2-2.449v4.899c-1.14-.233-2-1.243-2-2.45zm4 2.5v-6l2.055 1.541c.267 1.948 1.925 3.459 3.945 3.459 1.858 0 3.411-1.28 3.858-3h4.284c.447 1.72 2 3 3.858 3 2.02 0 3.678-1.511 3.945-3.459l2.055-1.541v6c0 6.617-5.383 12-12 12s-12-5.383-12-12zm12 18c-2.414 0-4.434-1.721-4.899-4h9.798c-.465 2.279-2.485 4-4.899 4z"/><path d="m40.87 29.493c.178-.313.173-.698-.013-1.007l-1.543-2.572c-1.078-1.798-3.05-2.914-5.145-2.914h-4.338c-2.095 0-4.067 1.116-5.145 2.913l-1.543 2.572c-.186.309-.19.694-.013 1.007.177.314.51.508.87.508h1.395c2.338 0 4.608-.626 6.605-1.818 1.998 1.192 4.268 1.818 6.605 1.818h1.395c.36 0 .693-.194.87-.507zm-8.315-3.325c-.336-.224-.773-.224-1.109 0-1.693 1.129-3.648 1.756-5.675 1.826l.631-1.051c.718-1.199 2.032-1.943 3.429-1.943h4.338c1.397 0 2.711.744 3.43 1.942l.631 1.051c-2.027-.069-3.982-.696-5.675-1.825z"/><path d="m29 11h6v2h-6z"/><path d="m27 7h10v2h-10z"/></g></svg>