<svg id="Capa_1" enable-background="new 0 0 512 512" height="512" viewBox="0 0 512 512" width="512" xmlns="http://www.w3.org/2000/svg"><g><g><path d="m368.113 148.697v-18.8h38.248c18.824 0 34.139-15.307 34.139-34.122s-15.314-34.123-34.139-34.123h-53.388c-20.522-36.744-59.817-61.652-104.83-61.652-66.136 0-119.941 53.786-119.941 119.897v28.8c0 47.26 27.498 88.215 67.338 107.732v18.244c-6.594 1.989-13.456 3.837-20.612 5.764-23.866 6.427-48.544 13.073-68.059 26.509-23.301 16.042-34.869 38.79-35.367 69.546-.001.054-.001.108-.001.162v125.346c0 5.523 4.478 10 10 10h121.713c5.522 0 10-4.477 10-10s-4.478-10-10-10h-37.737v-188.235c4.82-1.367 26.038-7.085 31.701-8.726 5.815 22.707 26.459 39.544 50.966 39.544s45.152-16.838 50.967-39.546c5.662 1.64 26.898 7.361 31.729 8.732v188.231h-37.737c-5.522 0-10 4.477-10 10s4.478 10 10 10h121.713c5.522 0 10-4.477 10-10v-125.346c0-.055 0-.11-.001-.166-.51-30.758-12.085-53.507-35.388-69.547-19.519-13.435-44.202-20.081-68.072-26.508-7.153-1.926-14.014-3.773-20.606-5.761v-18.237c39.854-19.515 67.364-60.474 67.364-107.738zm38.248-67.045c7.796 0 14.139 6.335 14.139 14.123s-6.343 14.122-14.139 14.122h-38.669c-.813-9.792-2.803-19.256-5.838-28.245zm-260.885 410.348h-53.976v-115.264c.665-39.203 23.838-55.798 53.976-66.662zm205.363-181.921c30.129 10.863 53.296 27.461 53.976 66.659v115.262h-53.976zm-102.696-290.079c39.086 0 72.999 22.534 89.427 55.28.209.536.464 1.048.759 1.535 4.897 10.195 8.112 21.342 9.285 33.082h-53.391v-14.122c0-18.815-15.314-34.123-34.138-34.123h-23.884c-18.823 0-34.138 15.307-34.138 34.123v14.122h-53.363c5.036-50.406 47.711-89.897 99.443-89.897zm26.08 75.775v14.122h-52.159v-14.122c0-7.787 6.342-14.123 14.138-14.123h23.884c7.795 0 14.137 6.336 14.137 14.123zm6.524 186.232c0 17.962-14.626 32.576-32.604 32.576s-32.604-14.613-32.604-32.576v-17.917c10.371 2.932 21.307 4.503 32.604 4.503s22.233-1.571 32.604-4.502zm-32.604-33.413c-55.107 0-99.941-44.813-99.941-99.897v-18.8h199.912v18.8c-.001 55.083-44.847 99.897-99.971 99.897z"/><path d="m307.979 399.133c0-5.523-4.478-10-10-10h-99.646c-5.522 0-10 4.477-10 10s4.478 10 10 10h99.646c5.523 0 10-4.477 10-10z"/><path d="m289.968 439.129c0-5.523-4.478-10-10-10h-63.622c-5.522 0-10 4.477-10 10s4.478 10 10 10h63.622c5.522 0 10-4.477 10-10z"/><path d="m248.143 492c-5.522 0-10 4.477-10 10s4.478 10 10 10h.057c5.522 0 9.972-4.477 9.972-10s-4.507-10-10.029-10z"/></g></g></svg>